<svg width="32" height="29" viewBox="0 0 32 29" fill="none" xmlns="http://www.w3.org/2000/svg">
<path d="M5.87793 28.252C4.25684 28.252 3.02148 27.832 2.17188 26.9922C1.33203 26.1621 0.912109 24.9463 0.912109 23.3447V5.54688C0.912109 3.94531 1.33203 2.72949 2.17188 1.89941C3.02148 1.05957 4.25684 0.639648 5.87793 0.639648H26.1367C27.7578 0.639648 28.9883 1.05957 29.8281 1.89941C30.668 2.72949 31.0879 3.94531 31.0879 5.54688V23.3447C31.0879 24.9463 30.668 26.1621 29.8281 26.9922C28.9883 27.832 27.7578 28.252 26.1367 28.252H5.87793ZM5.96582 25H26.0195C26.6055 25 27.0547 24.8535 27.3672 24.5605C27.6797 24.2578 27.8359 23.7988 27.8359 23.1836V9.85352C27.8359 9.24805 27.6797 8.79883 27.3672 8.50586C27.0547 8.20312 26.6055 8.05176 26.0195 8.05176H5.96582C5.38965 8.05176 4.94531 8.20312 4.63281 8.50586C4.32031 8.79883 4.16406 9.24805 4.16406 9.85352V23.1836C4.16406 23.7988 4.32031 24.2578 4.63281 24.5605C4.94531 24.8535 5.38965 25 5.96582 25ZM13.2168 12.9883C12.9531 12.9883 12.7676 12.9395 12.6602 12.8418C12.5527 12.7344 12.499 12.5537 12.499 12.2998V11.4355C12.499 11.1719 12.5527 10.9912 12.6602 10.8936C12.7676 10.7959 12.9531 10.7471 13.2168 10.7471H14.0664C14.3301 10.7471 14.5156 10.7959 14.623 10.8936C14.7305 10.9912 14.7842 11.1719 14.7842 11.4355V12.2998C14.7842 12.5537 14.7305 12.7344 14.623 12.8418C14.5156 12.9395 14.3301 12.9883 14.0664 12.9883H13.2168ZM17.9482 12.9883C17.6846 12.9883 17.499 12.9395 17.3916 12.8418C17.2939 12.7344 17.2451 12.5537 17.2451 12.2998V11.4355C17.2451 11.1719 17.2939 10.9912 17.3916 10.8936C17.499 10.7959 17.6846 10.7471 17.9482 10.7471H18.8125C19.0762 10.7471 19.2568 10.7959 19.3545 10.8936C19.4619 10.9912 19.5156 11.1719 19.5156 11.4355V12.2998C19.5156 12.5537 19.4619 12.7344 19.3545 12.8418C19.2568 12.9395 19.0762 12.9883 18.8125 12.9883H17.9482ZM22.6797 12.9883C22.416 12.9883 22.2305 12.9395 22.123 12.8418C22.0156 12.7344 21.9619 12.5537 21.9619 12.2998V11.4355C21.9619 11.1719 22.0156 10.9912 22.123 10.8936C22.2305 10.7959 22.416 10.7471 22.6797 10.7471H23.5293C23.8027 10.7471 23.9883 10.7959 24.0859 10.8936C24.1934 10.9912 24.2471 11.1719 24.2471 11.4355V12.2998C24.2471 12.5537 24.1934 12.7344 24.0859 12.8418C23.9883 12.9395 23.8027 12.9883 23.5293 12.9883H22.6797ZM8.48535 17.6465C8.21191 17.6465 8.02148 17.5977 7.91406 17.5C7.81641 17.3926 7.76758 17.207 7.76758 16.9434V16.0938C7.76758 15.8301 7.81641 15.6494 7.91406 15.5518C8.02148 15.4541 8.21191 15.4053 8.48535 15.4053H9.34961C9.61328 15.4053 9.79395 15.4541 9.8916 15.5518C9.98926 15.6494 10.0381 15.8301 10.0381 16.0938V16.9434C10.0381 17.207 9.98926 17.3926 9.8916 17.5C9.79395 17.5977 9.61328 17.6465 9.34961 17.6465H8.48535ZM13.2168 17.6465C12.9531 17.6465 12.7676 17.5977 12.6602 17.5C12.5527 17.3926 12.499 17.207 12.499 16.9434V16.0938C12.499 15.8301 12.5527 15.6494 12.6602 15.5518C12.7676 15.4541 12.9531 15.4053 13.2168 15.4053H14.0664C14.3301 15.4053 14.5156 15.4541 14.623 15.5518C14.7305 15.6494 14.7842 15.8301 14.7842 16.0938V16.9434C14.7842 17.207 14.7305 17.3926 14.623 17.5C14.5156 17.5977 14.3301 17.6465 14.0664 17.6465H13.2168ZM17.9482 17.6465C17.6846 17.6465 17.499 17.5977 17.3916 17.5C17.2939 17.3926 17.2451 17.207 17.2451 16.9434V16.0938C17.2451 15.8301 17.2939 15.6494 17.3916 15.5518C17.499 15.4541 17.6846 15.4053 17.9482 15.4053H18.8125C19.0762 15.4053 19.2568 15.4541 19.3545 15.5518C19.4619 15.6494 19.5156 15.8301 19.5156 16.0938V16.9434C19.5156 17.207 19.4619 17.3926 19.3545 17.5C19.2568 17.5977 19.0762 17.6465 18.8125 17.6465H17.9482ZM22.6797 17.6465C22.416 17.6465 22.2305 17.5977 22.123 17.5C22.0156 17.3926 21.9619 17.207 21.9619 16.9434V16.0938C21.9619 15.8301 22.0156 15.6494 22.123 15.5518C22.2305 15.4541 22.416 15.4053 22.6797 15.4053H23.5293C23.8027 15.4053 23.9883 15.4541 24.0859 15.5518C24.1934 15.6494 24.2471 15.8301 24.2471 16.0938V16.9434C24.2471 17.207 24.1934 17.3926 24.0859 17.5C23.9883 17.5977 23.8027 17.6465 23.5293 17.6465H22.6797ZM8.48535 22.3047C8.21191 22.3047 8.02148 22.2559 7.91406 22.1582C7.81641 22.0605 7.76758 21.875 7.76758 21.6016V20.752C7.76758 20.4883 7.81641 20.3076 7.91406 20.21C8.02148 20.1123 8.21191 20.0635 8.48535 20.0635H9.34961C9.61328 20.0635 9.79395 20.1123 9.8916 20.21C9.98926 20.3076 10.0381 20.4883 10.0381 20.752V21.6016C10.0381 21.875 9.98926 22.0605 9.8916 22.1582C9.79395 22.2559 9.61328 22.3047 9.34961 22.3047H8.48535ZM13.2168 22.3047C12.9531 22.3047 12.7676 22.2559 12.6602 22.1582C12.5527 22.0605 12.499 21.875 12.499 21.6016V20.752C12.499 20.4883 12.5527 20.3076 12.6602 20.21C12.7676 20.1123 12.9531 20.0635 13.2168 20.0635H14.0664C14.3301 20.0635 14.5156 20.1123 14.623 20.21C14.7305 20.3076 14.7842 20.4883 14.7842 20.752V21.6016C14.7842 21.875 14.7305 22.0605 14.623 22.1582C14.5156 22.2559 14.3301 22.3047 14.0664 22.3047H13.2168ZM17.9482 22.3047C17.6846 22.3047 17.499 22.2559 17.3916 22.1582C17.2939 22.0605 17.2451 21.875 17.2451 21.6016V20.752C17.2451 20.4883 17.2939 20.3076 17.3916 20.21C17.499 20.1123 17.6846 20.0635 17.9482 20.0635H18.8125C19.0762 20.0635 19.2568 20.1123 19.3545 20.21C19.4619 20.3076 19.5156 20.4883 19.5156 20.752V21.6016C19.5156 21.875 19.4619 22.0605 19.3545 22.1582C19.2568 22.2559 19.0762 22.3047 18.8125 22.3047H17.9482Z" fill="#878787"/>
</svg>
