<svg width="279" height="25" viewBox="0 0 279 25" fill="none" xmlns="http://www.w3.org/2000/svg">
<path d="M6.37158 3.44629C7.0389 3.51139 7.64925 3.66602 8.20264 3.91016C8.7723 4.1543 9.26058 4.46354 9.66748 4.83789C10.0907 5.21224 10.4162 5.64355 10.644 6.13184C10.8719 6.62012 10.9858 7.14095 10.9858 7.69434C10.9858 8.31283 10.8475 8.89062 10.5708 9.42773C10.2941 9.94857 9.91162 10.4043 9.42334 10.7949C8.93506 11.1693 8.35726 11.4622 7.68994 11.6738C7.0389 11.8854 6.33089 11.9912 5.56592 11.9912C4.80094 11.9912 4.09294 11.8854 3.44189 11.6738C2.79085 11.4622 2.22119 11.1693 1.73291 10.7949C1.2609 10.4043 0.886556 9.94857 0.609863 9.42773C0.349447 8.89062 0.219238 8.31283 0.219238 7.69434C0.219238 7.1084 0.341309 6.56315 0.585449 6.05859C0.845866 5.53776 1.1958 5.09017 1.63525 4.71582C2.09098 4.3252 2.61995 4.01595 3.22217 3.78809C3.84066 3.56022 4.50798 3.43001 5.22412 3.39746C5.19157 3.21842 5.10205 3.0638 4.95557 2.93359C4.80908 2.80339 4.54867 2.67318 4.17432 2.54297L4.44287 2.0791C4.81722 2.16048 5.18343 2.23372 5.5415 2.29883C5.89958 2.34766 6.28206 2.41276 6.68896 2.49414C6.62386 2.6569 6.55876 2.81152 6.49365 2.95801C6.44482 3.10449 6.40413 3.26725 6.37158 3.44629ZM9.22803 7.59668C9.22803 7.12467 9.13037 6.67708 8.93506 6.25391C8.75602 5.83073 8.50374 5.46452 8.17822 5.15527C7.86898 4.84603 7.48649 4.60189 7.03076 4.42285C6.59131 4.24382 6.1193 4.1543 5.61475 4.1543C5.09391 4.1543 4.60563 4.24382 4.1499 4.42285C3.71045 4.60189 3.32796 4.84603 3.00244 5.15527C2.67692 5.46452 2.4165 5.83073 2.22119 6.25391C2.04215 6.67708 1.95264 7.12467 1.95264 7.59668C1.95264 8.08496 2.04215 8.54069 2.22119 8.96387C2.4165 9.37077 2.67692 9.72884 3.00244 10.0381C3.32796 10.3311 3.71045 10.5671 4.1499 10.7461C4.60563 10.9089 5.09391 10.9902 5.61475 10.9902C6.13558 10.9902 6.61572 10.9089 7.05518 10.7461C7.49463 10.5671 7.87712 10.3311 8.20264 10.0381C8.52816 9.72884 8.78044 9.37077 8.95947 8.96387C9.13851 8.54069 9.22803 8.08496 9.22803 7.59668ZM13.0122 0.296875C13.8423 0.394531 14.6642 0.52474 15.478 0.6875C16.3081 0.833984 17.0405 0.972331 17.6753 1.10254C17.6102 1.39551 17.5532 1.72917 17.5044 2.10352C17.4556 2.47786 17.4312 2.8278 17.4312 3.15332V8.81738C17.4312 9.11035 17.4149 9.45215 17.3823 9.84277C17.366 10.2171 17.3335 10.5996 17.2847 10.9902C17.2521 11.3646 17.2114 11.7227 17.1626 12.0645C17.13 12.39 17.0894 12.6585 17.0405 12.8701L15.9663 13.0166C15.9175 12.6748 15.8768 12.2272 15.8442 11.6738C15.8117 11.1042 15.7954 10.5996 15.7954 10.1602V3.15332C15.7954 2.59993 15.5431 2.16048 15.0386 1.83496C14.5503 1.49316 13.7853 1.2002 12.7437 0.956055L13.0122 0.296875ZM15.4536 15.0186C15.0467 15.0023 14.5666 14.9941 14.0132 14.9941C13.4598 14.9941 12.8901 15.0023 12.3042 15.0186C11.7183 15.0348 11.1405 15.0592 10.5708 15.0918C10.0174 15.1081 9.52913 15.1325 9.10596 15.165C8.92692 15.1813 8.70719 15.1976 8.44678 15.2139C8.18636 15.2301 7.90153 15.2546 7.59229 15.2871C7.28304 15.3197 6.95752 15.3604 6.61572 15.4092C6.2902 15.4417 5.97282 15.4824 5.66357 15.5312L4.80908 14.0176C5.00439 14.0501 5.23226 14.0908 5.49268 14.1396C5.75309 14.1722 6.02979 14.2048 6.32275 14.2373C6.61572 14.2699 6.90869 14.2943 7.20166 14.3105C7.5109 14.3268 7.79574 14.335 8.05615 14.335C8.69092 14.335 9.38265 14.335 10.1313 14.335C10.8963 14.335 11.6857 14.3268 12.4995 14.3105C13.3296 14.278 14.1597 14.2454 14.9897 14.2129C15.8361 14.1641 16.658 14.099 17.4556 14.0176C17.4067 14.1803 17.3498 14.4163 17.2847 14.7256C17.2358 15.0186 17.187 15.3197 17.1382 15.6289L16.772 17.8262C17.0161 17.8099 17.2358 17.7855 17.4312 17.7529L17.3091 18.9248C16.3651 18.876 15.4211 18.8516 14.4771 18.8516C13.533 18.8516 12.6379 18.8678 11.7915 18.9004C10.9451 18.9167 10.1802 18.9411 9.49658 18.9736C8.81299 19.0062 8.2596 19.0306 7.83643 19.0469C7.82015 19.1771 7.80387 19.3398 7.7876 19.5352C7.7876 19.7142 7.7876 19.8688 7.7876 19.999V21.5615C7.7876 21.8545 7.8527 22.0417 7.98291 22.123C8.11312 22.2044 8.38981 22.2533 8.81299 22.2695C9.4152 22.2858 10.1313 22.2858 10.9614 22.2695C11.7915 22.2533 12.6541 22.2126 13.5493 22.1475C14.4445 22.0986 15.3234 22.0335 16.186 21.9521C17.0649 21.8708 17.8543 21.7731 18.5542 21.6592L18.2124 23.1729C17.3009 23.1403 16.3651 23.1159 15.4048 23.0996C14.4445 23.0996 13.4924 23.1077 12.5483 23.124C11.6043 23.1403 10.6847 23.1647 9.78955 23.1973C8.91064 23.2298 8.10498 23.2624 7.37256 23.2949C6.94938 23.3275 6.64014 23.2217 6.44482 22.9775C6.24951 22.7497 6.15186 22.4486 6.15186 22.0742V20.4141C6.15186 20.1048 6.12744 19.8525 6.07861 19.6572C6.04606 19.4456 5.96468 19.2747 5.83447 19.1445C5.72054 18.998 5.54964 18.876 5.32178 18.7783C5.09391 18.6807 4.79281 18.5749 4.41846 18.4609L4.6626 17.8994C5.5415 17.9971 6.44482 18.0622 7.37256 18.0947C8.31657 18.1273 9.25244 18.1436 10.1802 18.1436C11.1079 18.1273 12.0112 18.1029 12.8901 18.0703C13.769 18.0215 14.5991 17.9727 15.3804 17.9238L15.4536 15.0186ZM29.5649 7.47461C29.9881 7.84896 30.4113 8.20703 30.8345 8.54883C31.2739 8.87435 31.7297 9.20801 32.2017 9.5498C32.6737 9.87533 33.1701 10.2171 33.6909 10.5752C34.228 10.917 34.814 11.2751 35.4487 11.6494L34.0083 12.9189C33.5688 12.4632 33.1538 12.04 32.7632 11.6494C32.3726 11.2588 31.9738 10.8844 31.5669 10.5264C31.1763 10.152 30.7775 9.77767 30.3706 9.40332C29.9637 9.02897 29.5324 8.61393 29.0767 8.1582C28.0513 9.42773 26.9119 10.5345 25.6587 11.4785C24.4217 12.4225 23.1603 13.2607 21.8745 13.9932L21.4351 13.5049C22.314 12.9189 23.1685 12.276 23.9985 11.5762C24.8449 10.86 25.618 10.1113 26.3179 9.33008C27.0177 8.54883 27.6281 7.73503 28.1489 6.88867C28.6698 6.04232 29.0522 5.19596 29.2964 4.34961C29.3778 4.12174 29.4185 3.95085 29.4185 3.83691C29.4347 3.72298 29.3452 3.59277 29.1499 3.44629C28.9871 3.34863 28.7837 3.22656 28.5396 3.08008C28.3117 2.93359 28.0106 2.77083 27.6362 2.5918L28.0513 2.10352C28.7186 2.28255 29.3534 2.45345 29.9556 2.61621C30.5741 2.77897 31.2007 2.99056 31.8354 3.25098C31.5588 4.03223 31.2251 4.78092 30.8345 5.49707C30.4601 6.19694 30.0369 6.85612 29.5649 7.47461ZM35.644 15.5312C36.2788 15.5801 36.8647 15.7266 37.4019 15.9707C37.9552 16.1986 38.4272 16.4915 38.8179 16.8496C39.2248 17.2077 39.534 17.6227 39.7456 18.0947C39.9735 18.5667 40.0874 19.0713 40.0874 19.6084C40.0874 20.1943 39.9572 20.7396 39.6968 21.2441C39.4364 21.7487 39.0701 22.18 38.5981 22.5381C38.1424 22.9124 37.6053 23.1973 36.9868 23.3926C36.3683 23.6042 35.6929 23.71 34.9604 23.71C34.228 23.71 33.5444 23.6042 32.9097 23.3926C32.2912 23.1973 31.7541 22.9124 31.2983 22.5381C30.8589 22.18 30.509 21.7487 30.2485 21.2441C29.9881 20.7396 29.8579 20.1943 29.8579 19.6084C29.8579 19.055 29.9718 18.5423 30.1997 18.0703C30.4438 17.582 30.7694 17.1589 31.1763 16.8008C31.5994 16.4264 32.0959 16.1253 32.6655 15.8975C33.2352 15.6696 33.8537 15.5394 34.521 15.5068C34.4884 15.3115 34.3908 15.1569 34.228 15.043C34.0815 14.9128 33.8293 14.7907 33.4712 14.6768L33.7153 14.1885C34.0897 14.2699 34.4478 14.3431 34.7896 14.4082C35.1476 14.4733 35.5301 14.5465 35.937 14.6279C35.8719 14.7581 35.8149 14.8965 35.7661 15.043C35.7173 15.1895 35.6766 15.3522 35.644 15.5312ZM38.3052 19.4863C38.3052 19.0306 38.2157 18.6074 38.0366 18.2168C37.8739 17.8262 37.6379 17.4844 37.3286 17.1914C37.0356 16.8984 36.6776 16.6706 36.2544 16.5078C35.8475 16.3288 35.408 16.2393 34.936 16.2393C34.464 16.2393 34.0164 16.3288 33.5933 16.5078C33.1864 16.6706 32.8283 16.8984 32.519 17.1914C32.2261 17.4844 31.9901 17.8262 31.811 18.2168C31.6483 18.6074 31.5669 19.0306 31.5669 19.4863C31.5669 19.9258 31.6483 20.3408 31.811 20.7314C31.9901 21.1221 32.2261 21.4639 32.519 21.7568C32.8283 22.0498 33.1864 22.2777 33.5933 22.4404C34.0164 22.6032 34.464 22.6846 34.936 22.6846C35.4243 22.6846 35.8719 22.6032 36.2788 22.4404C36.6857 22.2777 37.0356 22.0498 37.3286 21.7568C37.6379 21.4639 37.8739 21.1221 38.0366 20.7314C38.2157 20.3408 38.3052 19.9258 38.3052 19.4863ZM40.063 10.9902C40.063 11.2832 40.0467 11.625 40.0142 12.0156C39.9979 12.39 39.9653 12.7725 39.9165 13.1631C39.884 13.5374 39.8433 13.8955 39.7944 14.2373C39.7619 14.5628 39.7212 14.8314 39.6724 15.043L38.5981 15.1895C38.5493 14.8477 38.5086 14.4001 38.4761 13.8467C38.4435 13.2933 38.4272 12.7887 38.4272 12.333V3.15332C38.4272 2.59993 38.175 2.16048 37.6704 1.83496C37.1821 1.49316 36.4172 1.2002 35.3755 0.956055L35.644 0.296875C36.4578 0.394531 37.2798 0.52474 38.1099 0.6875C38.9399 0.833984 39.6724 0.972331 40.3071 1.10254C40.242 1.39551 40.1851 1.72917 40.1362 2.10352C40.0874 2.47786 40.063 2.8278 40.063 3.15332V7.71875C40.7303 7.6862 41.4871 7.62923 42.3335 7.54785C43.1799 7.4502 44.0425 7.33626 44.9214 7.20605L44.7017 8.69531C44.3599 8.67904 43.9855 8.6709 43.5786 8.6709C43.1717 8.6709 42.7567 8.6709 42.3335 8.6709C41.9266 8.6709 41.5278 8.67904 41.1372 8.69531C40.7466 8.69531 40.3885 8.69531 40.063 8.69531V10.9902ZM57.8364 1.68848C58.52 1.75358 59.1548 1.9082 59.7407 2.15234C60.3267 2.38021 60.8231 2.67318 61.23 3.03125C61.6532 3.37305 61.9787 3.77995 62.2065 4.25195C62.4507 4.70768 62.5728 5.19596 62.5728 5.7168C62.5728 6.31901 62.4344 6.8724 62.1577 7.37695C61.881 7.86523 61.4904 8.29655 60.9858 8.6709C60.4976 9.02897 59.9116 9.3138 59.228 9.52539C58.5607 9.7207 57.8364 9.81836 57.0552 9.81836C56.2739 9.81836 55.5496 9.7207 54.8823 9.52539C54.215 9.3138 53.6291 9.02897 53.1245 8.6709C52.6362 8.29655 52.2537 7.86523 51.9771 7.37695C51.7004 6.8724 51.562 6.31901 51.562 5.7168C51.562 5.16341 51.6922 4.65072 51.9526 4.17871C52.2131 3.69043 52.5711 3.26725 53.0269 2.90918C53.4826 2.53483 54.0197 2.24186 54.6382 2.03027C55.2729 1.80241 55.9647 1.6722 56.7134 1.63965C56.6808 1.46061 56.5832 1.31413 56.4204 1.2002C56.2739 1.06999 56.0135 0.947917 55.6392 0.833984L55.8589 0.394531C56.2658 0.475911 56.6483 0.549154 57.0063 0.614258C57.3644 0.663086 57.755 0.72819 58.1782 0.80957C58.1131 0.956055 58.048 1.10254 57.9829 1.24902C57.9341 1.37923 57.8853 1.52572 57.8364 1.68848ZM60.8394 5.61914C60.8394 5.17969 60.7417 4.76465 60.5464 4.37402C60.3511 3.96712 60.0825 3.61719 59.7407 3.32422C59.4152 3.03125 59.0246 2.79525 58.5688 2.61621C58.1131 2.43717 57.6167 2.34766 57.0796 2.34766C56.5425 2.34766 56.0461 2.43717 55.5903 2.61621C55.1346 2.79525 54.7358 3.03125 54.394 3.32422C54.0522 3.61719 53.7837 3.96712 53.5884 4.37402C53.3931 4.76465 53.2954 5.17969 53.2954 5.61914C53.2954 6.09115 53.3931 6.52246 53.5884 6.91309C53.7837 7.30371 54.0522 7.64551 54.394 7.93848C54.7358 8.21517 55.1346 8.4349 55.5903 8.59766C56.0461 8.76042 56.5425 8.8418 57.0796 8.8418C57.6167 8.8418 58.1131 8.76042 58.5688 8.59766C59.0246 8.4349 59.4233 8.21517 59.7651 7.93848C60.1069 7.64551 60.3674 7.30371 60.5464 6.91309C60.7417 6.52246 60.8394 6.09115 60.8394 5.61914ZM68.0659 12.5771C67.4149 12.5446 66.6092 12.5202 65.6489 12.5039C64.7049 12.4876 63.6795 12.4714 62.5728 12.4551C62.117 12.4551 61.5311 12.4632 60.8149 12.4795C60.0988 12.4795 59.3175 12.4876 58.4712 12.5039C57.6411 12.5202 56.7866 12.5446 55.9077 12.5771C55.0288 12.5934 54.1906 12.6178 53.3931 12.6504C52.5955 12.6829 51.8794 12.7155 51.2446 12.748C50.6099 12.7643 50.1297 12.7806 49.8042 12.7969C49.1694 12.8294 48.5347 12.8701 47.8999 12.9189C47.2814 12.9678 46.6711 13.0329 46.0688 13.1143L45.4341 11.4297C46.1991 11.5111 46.9233 11.5762 47.6069 11.625C48.2905 11.6576 49.0148 11.6901 49.7798 11.7227C50.1867 11.7389 50.7238 11.7471 51.3911 11.7471C52.0584 11.7471 52.7827 11.7471 53.564 11.7471C54.3615 11.7308 55.1834 11.7145 56.0298 11.6982C56.8924 11.6657 57.7144 11.6413 58.4956 11.625C59.2931 11.6087 60.0174 11.5924 60.6685 11.5762C61.3358 11.5436 61.8729 11.5192 62.2798 11.5029C63.4028 11.4541 64.4689 11.389 65.478 11.3076C66.4871 11.21 67.4312 11.096 68.3101 10.9658L68.0659 12.5771ZM61.8159 15.7754C61.409 15.7591 60.8638 15.751 60.1802 15.751C59.5129 15.751 58.813 15.7591 58.0806 15.7754C57.3481 15.7917 56.6401 15.8161 55.9565 15.8486C55.2729 15.8649 54.7196 15.8893 54.2964 15.9219C54.1174 15.9382 53.8895 15.9544 53.6128 15.9707C53.3524 15.987 53.0675 16.0114 52.7583 16.0439C52.4491 16.0602 52.1317 16.0928 51.8062 16.1416C51.4806 16.1742 51.1632 16.2148 50.854 16.2637L49.9995 14.75C50.1948 14.7826 50.4227 14.8232 50.6831 14.8721C50.9435 14.9046 51.2202 14.9372 51.5132 14.9697C51.8062 15.0023 52.0991 15.0267 52.3921 15.043C52.7013 15.0592 52.9862 15.0674 53.2466 15.0674C53.8813 15.0674 54.6382 15.0674 55.5171 15.0674C56.396 15.0674 57.3237 15.0592 58.3003 15.043C59.2769 15.0104 60.2453 14.9779 61.2056 14.9453C62.1821 14.8965 63.0692 14.8395 63.8667 14.7744C63.8179 14.9209 63.769 15.1488 63.7202 15.458C63.6714 15.7673 63.6144 16.0765 63.5493 16.3857L63.2075 18.1924C63.3377 18.1761 63.4517 18.168 63.5493 18.168C63.647 18.168 63.7446 18.1598 63.8423 18.1436L63.7202 19.291C62.7762 19.2422 61.7671 19.2178 60.6929 19.2178C59.6349 19.2178 58.6095 19.234 57.6167 19.2666C56.6239 19.2829 55.7205 19.3073 54.9067 19.3398C54.0929 19.3724 53.4826 19.3968 53.0757 19.4131C53.0594 19.5758 53.0431 19.7467 53.0269 19.9258C53.0269 20.1048 53.0269 20.2594 53.0269 20.3896V21.4395C53.0269 21.7487 53.0838 21.944 53.1978 22.0254C53.328 22.1068 53.6128 22.1556 54.0522 22.1719C54.6545 22.1882 55.4276 22.1882 56.3716 22.1719C57.3319 22.1556 58.3328 22.1149 59.3745 22.0498C60.4162 22.001 61.4334 21.9359 62.4263 21.8545C63.4191 21.7731 64.2655 21.6755 64.9653 21.5615L64.6235 23.0752C63.7121 23.0426 62.7111 23.0182 61.6206 23.002C60.5301 23.002 59.4315 23.0101 58.3247 23.0264C57.2342 23.0426 56.1844 23.0671 55.1753 23.0996C54.1662 23.1322 53.2873 23.1647 52.5386 23.1973C52.1154 23.2298 51.8062 23.124 51.6108 22.8799C51.4318 22.652 51.3423 22.3509 51.3423 21.9766V20.8291C51.3423 20.5199 51.3179 20.2676 51.269 20.0723C51.2365 19.8607 51.1551 19.6898 51.0249 19.5596C50.911 19.4131 50.7401 19.291 50.5122 19.1934C50.2843 19.0794 49.9751 18.9655 49.5845 18.8516L49.853 18.29C50.7319 18.3877 51.6841 18.4609 52.7095 18.5098C53.7511 18.5423 54.7928 18.5586 55.8345 18.5586C56.8924 18.5423 57.9259 18.5179 58.9351 18.4854C59.9604 18.4365 60.8963 18.3796 61.7427 18.3145L61.8159 15.7754ZM89.1841 5.00879C88.7121 6.4248 88.0692 7.80013 87.2554 9.13477C86.4416 10.4694 85.5138 11.7227 84.4722 12.8945C83.4468 14.0664 82.3319 15.1243 81.1274 16.0684C79.9393 17.0124 78.7267 17.7936 77.4897 18.4121L76.9526 17.875C78.1245 17.1751 79.2394 16.3613 80.2974 15.4336C81.3553 14.5059 82.3075 13.5212 83.1538 12.4795C84.0164 11.4215 84.757 10.3311 85.3755 9.20801C86.0103 8.06868 86.4904 6.94564 86.8159 5.83887C86.5718 5.83887 86.23 5.84701 85.7905 5.86328C85.3511 5.87956 84.8953 5.89583 84.4233 5.91211C83.9513 5.92839 83.4956 5.94466 83.0562 5.96094C82.633 5.97721 82.3075 5.98535 82.0796 5.98535C81.9006 5.98535 81.6646 6.00163 81.3716 6.03418C81.0949 6.05046 80.7938 6.07487 80.4683 6.10742C80.159 6.13997 79.8416 6.17253 79.5161 6.20508C79.1906 6.23763 78.8895 6.27832 78.6128 6.32715L77.6606 4.78906C77.8722 4.83789 78.1164 4.87858 78.3931 4.91113C78.6698 4.94368 78.9546 4.97624 79.2476 5.00879C79.5568 5.02507 79.8579 5.04134 80.1509 5.05762C80.4601 5.05762 80.7531 5.05762 81.0298 5.05762C81.632 5.05762 82.283 5.04948 82.9829 5.0332C83.6828 5.01693 84.3745 4.98438 85.0581 4.93555C85.7417 4.88672 86.3927 4.82975 87.0112 4.76465C87.6297 4.68327 88.1668 4.58561 88.6226 4.47168L89.1841 5.00879ZM90.5513 0.296875C91.3651 0.394531 92.187 0.52474 93.0171 0.6875C93.8472 0.833984 94.5796 0.972331 95.2144 1.10254C95.1493 1.39551 95.0923 1.72917 95.0435 2.10352C94.9946 2.47786 94.9702 2.8278 94.9702 3.15332V16.8252C94.9702 17.3298 94.9539 17.9076 94.9214 18.5586C94.9051 19.2096 94.8807 19.8607 94.8481 20.5117C94.8156 21.1628 94.7749 21.7812 94.7261 22.3672C94.6772 22.9531 94.6203 23.4333 94.5552 23.8076L93.5298 23.9297C93.4972 23.653 93.4647 23.3031 93.4321 22.8799C93.3996 22.473 93.3752 22.0254 93.3589 21.5371C93.3426 21.0651 93.3263 20.5768 93.3101 20.0723C93.3101 19.5677 93.3101 19.0794 93.3101 18.6074V3.15332C93.3101 2.59993 93.0578 2.16048 92.5532 1.83496C92.0649 1.49316 91.3 1.2002 90.2583 0.956055L90.5513 0.296875ZM112.133 13.1143C113.012 13.0817 113.818 13.0573 114.55 13.041C115.283 13.0085 115.861 12.984 116.284 12.9678C117.407 12.9189 118.473 12.8538 119.482 12.7725C120.491 12.6911 121.435 12.5853 122.314 12.4551L122.07 14.042C121.419 14.0094 120.613 13.985 119.653 13.9688C118.709 13.9525 117.683 13.9362 116.577 13.9199C116.121 13.9199 115.535 13.9281 114.819 13.9443C114.103 13.9443 113.321 13.9525 112.475 13.9688C111.645 13.985 110.791 14.0094 109.912 14.042C109.033 14.0583 108.194 14.0827 107.397 14.1152C106.599 14.1478 105.883 14.1803 105.249 14.2129C104.614 14.2454 104.134 14.2699 103.808 14.2861C103.173 14.3187 102.539 14.3594 101.904 14.4082C101.285 14.457 100.675 14.5221 100.073 14.6035L99.438 12.8945C100.203 12.9759 100.927 13.041 101.611 13.0898C102.294 13.1387 103.019 13.1794 103.784 13.2119C104.109 13.2282 104.516 13.2363 105.004 13.2363C105.509 13.2363 106.054 13.2363 106.64 13.2363C107.242 13.2201 107.869 13.2119 108.52 13.2119C109.187 13.1956 109.855 13.1712 110.522 13.1387V10.3311C109.643 10.3311 108.821 10.3473 108.056 10.3799C107.291 10.3962 106.608 10.4206 106.005 10.4531C105.582 10.4857 105.273 10.388 105.078 10.1602C104.899 9.91602 104.809 9.60677 104.809 9.23242V7.74316C104.809 7.43392 104.785 7.18164 104.736 6.98633C104.703 6.77474 104.622 6.60384 104.492 6.47363C104.378 6.32715 104.199 6.20508 103.955 6.10742C103.727 6.00977 103.426 5.89583 103.051 5.76562L103.295 5.22852C104.191 5.32617 105.167 5.39128 106.225 5.42383C107.299 5.45638 108.382 5.47266 109.472 5.47266C110.579 5.45638 111.653 5.43197 112.695 5.39941C113.753 5.35059 114.713 5.30176 115.576 5.25293L115.649 2.46973C115.242 2.45345 114.672 2.44531 113.94 2.44531C113.224 2.44531 112.467 2.45345 111.669 2.46973C110.872 2.486 110.107 2.51042 109.375 2.54297C108.642 2.55924 108.064 2.58366 107.641 2.61621C107.462 2.63249 107.242 2.64876 106.982 2.66504C106.722 2.68132 106.437 2.70573 106.127 2.73828C105.818 2.75456 105.493 2.78711 105.151 2.83594C104.825 2.86849 104.508 2.91732 104.199 2.98242L103.344 1.44434C103.54 1.47689 103.767 1.51758 104.028 1.56641C104.288 1.59896 104.565 1.63151 104.858 1.66406C105.151 1.69661 105.444 1.72917 105.737 1.76172C106.046 1.77799 106.331 1.78613 106.591 1.78613C107.226 1.78613 108.007 1.78613 108.935 1.78613C109.879 1.78613 110.864 1.77799 111.889 1.76172C112.931 1.72917 113.956 1.69661 114.965 1.66406C115.991 1.61523 116.902 1.55013 117.7 1.46875C117.651 1.63151 117.594 1.86751 117.529 2.17676C117.48 2.46973 117.431 2.77083 117.382 3.08008L116.992 5.13086C117.138 5.11458 117.26 5.10645 117.358 5.10645C117.472 5.10645 117.578 5.09831 117.675 5.08203L117.553 6.25391C116.609 6.20508 115.584 6.18066 114.477 6.18066C113.37 6.18066 112.296 6.19694 111.254 6.22949C110.213 6.24577 109.261 6.27018 108.398 6.30273C107.552 6.33529 106.917 6.3597 106.494 6.37598C106.477 6.52246 106.461 6.68522 106.445 6.86426C106.445 7.04329 106.445 7.19792 106.445 7.32812V8.69531C106.445 8.98828 106.51 9.18359 106.64 9.28125C106.787 9.36263 107.063 9.41146 107.47 9.42773C108.072 9.44401 108.854 9.44401 109.814 9.42773C110.774 9.41146 111.775 9.37891 112.817 9.33008C113.875 9.26497 114.9 9.19173 115.893 9.11035C116.902 9.0127 117.757 8.9069 118.457 8.79297L118.09 10.3311C117.244 10.2985 116.308 10.2822 115.283 10.2822C114.257 10.266 113.208 10.266 112.133 10.2822V13.1143ZM106.567 16.6055C107.43 16.6055 108.39 16.5973 109.448 16.5811C110.506 16.5485 111.564 16.5078 112.622 16.459C113.68 16.4102 114.681 16.3613 115.625 16.3125C116.585 16.2474 117.382 16.1742 118.017 16.0928C117.985 16.3044 117.96 16.4834 117.944 16.6299C117.944 16.7601 117.936 16.8822 117.919 16.9961C117.903 17.0938 117.895 17.1995 117.895 17.3135C117.895 17.4111 117.895 17.5251 117.895 17.6553V20.1211C117.895 20.3652 117.879 20.6501 117.846 20.9756C117.83 21.2848 117.806 21.5941 117.773 21.9033C117.74 22.2288 117.7 22.5299 117.651 22.8066C117.602 23.0996 117.553 23.3275 117.504 23.4902L116.43 23.6855C116.381 23.2786 116.333 22.7822 116.284 22.1963C116.251 21.6266 116.235 21.1221 116.235 20.6826V17.2402C115.6 17.224 114.884 17.224 114.086 17.2402C113.305 17.2565 112.508 17.2809 111.694 17.3135C110.88 17.346 110.074 17.3867 109.277 17.4355C108.496 17.4844 107.788 17.5332 107.153 17.582C106.632 17.6146 106.16 17.6553 105.737 17.7041C105.33 17.7529 104.858 17.818 104.321 17.8994L103.588 16.3857C104.06 16.4508 104.549 16.5078 105.053 16.5566C105.574 16.5892 106.079 16.6055 106.567 16.6055ZM141.503 16.8252C141.503 17.3298 141.487 17.9076 141.455 18.5586C141.438 19.2096 141.414 19.8607 141.381 20.5117C141.349 21.1628 141.308 21.7812 141.259 22.3672C141.21 22.9531 141.153 23.4333 141.088 23.8076L140.063 23.9297C140.03 23.653 139.998 23.3031 139.965 22.8799C139.949 22.473 139.925 22.0254 139.892 21.5371C139.876 21.0651 139.86 20.5768 139.843 20.0723C139.843 19.5677 139.843 19.0794 139.843 18.6074V3.15332C139.843 2.59993 139.599 2.16048 139.111 1.83496C138.623 1.49316 137.858 1.2002 136.816 0.956055L137.084 0.296875C137.898 0.394531 138.72 0.52474 139.55 0.6875C140.38 0.833984 141.113 0.972331 141.748 1.10254C141.682 1.39551 141.625 1.72917 141.577 2.10352C141.528 2.47786 141.503 2.8278 141.503 3.15332V11.3076C142.187 11.2751 142.968 11.2181 143.847 11.1367C144.742 11.0391 145.629 10.917 146.508 10.7705L146.289 12.333C145.947 12.3167 145.564 12.3086 145.141 12.3086C144.718 12.3086 144.287 12.3086 143.847 12.3086C143.424 12.3086 143.009 12.3167 142.602 12.333C142.195 12.333 141.829 12.333 141.503 12.333V16.8252ZM137.524 7.20605C137.15 7.20605 136.694 7.20605 136.157 7.20605C135.62 7.20605 135.042 7.21419 134.423 7.23047C133.805 7.24674 133.17 7.26302 132.519 7.2793C131.868 7.29557 131.233 7.31185 130.615 7.32812C130.013 7.3444 129.451 7.36068 128.93 7.37695C128.409 7.39323 127.978 7.40951 127.636 7.42578C127.441 7.44206 127.197 7.45833 126.904 7.47461C126.611 7.49089 126.31 7.5153 126 7.54785C125.691 7.56413 125.39 7.58854 125.097 7.62109C124.804 7.65365 124.56 7.6862 124.365 7.71875L123.608 6.20508C124.08 6.28646 124.625 6.35156 125.244 6.40039C125.862 6.44922 126.407 6.47363 126.879 6.47363C127.254 6.47363 127.709 6.46549 128.247 6.44922C128.8 6.43294 129.394 6.41667 130.029 6.40039C130.68 6.38411 131.355 6.3597 132.055 6.32715C132.755 6.2946 133.447 6.25391 134.13 6.20508C134.814 6.15625 135.465 6.09928 136.083 6.03418C136.718 5.96908 137.28 5.8877 137.768 5.79004L137.524 7.20605ZM135.986 13.4072C135.986 13.9932 135.856 14.5384 135.595 15.043C135.335 15.5475 134.969 15.9951 134.497 16.3857C134.041 16.7601 133.504 17.0612 132.885 17.2891C132.267 17.5007 131.591 17.6064 130.859 17.6064C130.143 17.6064 129.467 17.4925 128.833 17.2646C128.214 17.0368 127.669 16.7357 127.197 16.3613C126.741 15.9707 126.375 15.5231 126.098 15.0186C125.838 14.514 125.708 13.9769 125.708 13.4072C125.708 12.7725 125.838 12.1947 126.098 11.6738C126.375 11.153 126.741 10.7054 127.197 10.3311C127.669 9.95671 128.214 9.67188 128.833 9.47656C129.467 9.26497 130.143 9.15918 130.859 9.15918C131.624 9.15918 132.316 9.27311 132.934 9.50098C133.569 9.72884 134.114 10.0381 134.57 10.4287C135.026 10.8193 135.375 11.2751 135.62 11.7959C135.864 12.3005 135.986 12.8376 135.986 13.4072ZM127.49 13.2852C127.49 13.7246 127.571 14.1478 127.734 14.5547C127.913 14.9453 128.157 15.2952 128.466 15.6045C128.776 15.9137 129.134 16.1579 129.541 16.3369C129.964 16.516 130.419 16.6055 130.908 16.6055C131.38 16.6055 131.819 16.5241 132.226 16.3613C132.633 16.1823 132.983 15.9463 133.276 15.6533C133.585 15.3441 133.821 14.986 133.984 14.5791C134.163 14.1722 134.252 13.7409 134.252 13.2852C134.252 12.862 134.171 12.4551 134.008 12.0645C133.846 11.6576 133.618 11.3076 133.325 11.0146C133.032 10.7054 132.682 10.4613 132.275 10.2822C131.868 10.0869 131.412 9.98926 130.908 9.98926C130.419 9.98926 129.964 10.0706 129.541 10.2334C129.134 10.3962 128.776 10.624 128.466 10.917C128.157 11.21 127.913 11.5599 127.734 11.9668C127.571 12.3737 127.49 12.8132 127.49 13.2852ZM133.886 3.93457C133.317 3.91829 132.714 3.92643 132.08 3.95898C131.445 3.97526 130.908 3.9834 130.468 3.9834C130.354 3.9834 130.2 3.99154 130.004 4.00781C129.825 4.00781 129.622 4.01595 129.394 4.03223C129.166 4.03223 128.93 4.0485 128.686 4.08105C128.442 4.09733 128.214 4.12174 128.002 4.1543L127.27 2.68945C127.661 2.78711 128.108 2.87663 128.613 2.95801C129.134 3.03939 129.646 3.08008 130.151 3.08008C130.558 3.08008 131.136 3.05566 131.884 3.00684C132.649 2.94173 133.414 2.85221 134.179 2.73828L133.886 3.93457ZM163.33 3.15332C163.33 2.59993 163.077 2.16048 162.573 1.83496C162.084 1.49316 161.319 1.2002 160.278 0.956055L160.571 0.296875C161.385 0.394531 162.207 0.52474 163.037 0.6875C163.867 0.833984 164.599 0.972331 165.234 1.10254C165.169 1.39551 165.112 1.72917 165.063 2.10352C165.014 2.47786 164.99 2.8278 164.99 3.15332V10.209C165.657 10.1764 166.43 10.1195 167.309 10.0381C168.188 9.95671 169.067 9.83464 169.946 9.67188L169.702 11.2344C169.36 11.2181 168.977 11.21 168.554 11.21C168.147 11.21 167.732 11.21 167.309 11.21C166.886 11.21 166.471 11.2181 166.064 11.2344C165.657 11.2344 165.299 11.2344 164.99 11.2344V16.8252C164.99 17.3298 164.973 17.9076 164.941 18.5586C164.925 19.2096 164.9 19.8607 164.868 20.5117C164.835 21.1628 164.786 21.7812 164.721 22.3672C164.672 22.9531 164.615 23.4333 164.55 23.8076L163.525 23.9297C163.492 23.653 163.46 23.3031 163.427 22.8799C163.411 22.473 163.395 22.0254 163.378 21.5371C163.362 21.0651 163.346 20.5768 163.33 20.0723C163.33 19.5677 163.33 19.0794 163.33 18.6074V13.6514C162.597 13.9443 161.743 14.2536 160.766 14.5791C159.79 14.8883 158.78 15.1895 157.739 15.4824C156.713 15.7591 155.688 16.0114 154.663 16.2393C153.653 16.4671 152.75 16.638 151.953 16.752C151.22 16.8496 150.699 16.7601 150.39 16.4834C150.081 16.2067 149.926 15.6859 149.926 14.9209V7.79199C149.926 7.46647 149.902 7.18978 149.853 6.96191C149.804 6.73405 149.698 6.53874 149.536 6.37598C149.389 6.21322 149.169 6.06673 148.876 5.93652C148.6 5.80632 148.234 5.67611 147.778 5.5459L148.071 4.93555C148.95 5.06576 149.886 5.15527 150.878 5.2041C151.871 5.23665 152.872 5.23665 153.881 5.2041C154.89 5.15527 155.875 5.08203 156.835 4.98438C157.812 4.88672 158.723 4.76465 159.57 4.61816L159.252 6.08301C157.706 6.0179 156.282 6.00977 154.98 6.05859C153.694 6.10742 152.563 6.17253 151.586 6.25391V14.4326C151.586 14.7581 151.676 14.986 151.855 15.1162C152.034 15.2301 152.262 15.2708 152.539 15.2383C153.19 15.1895 153.979 15.0918 154.907 14.9453C155.851 14.7988 156.819 14.6198 157.812 14.4082C158.821 14.1803 159.806 13.9362 160.766 13.6758C161.743 13.4154 162.597 13.1468 163.33 12.8701V3.15332ZM173.266 21.5615C173.071 21.6104 172.875 21.6022 172.68 21.5371C172.501 21.4883 172.338 21.3988 172.192 21.2686C172.045 21.1546 171.923 21.0163 171.826 20.8535C171.744 20.6745 171.704 20.4792 171.704 20.2676C171.704 19.877 171.85 19.5514 172.143 19.291C172.436 19.0143 172.794 18.876 173.217 18.876C173.787 18.876 174.218 19.0713 174.511 19.4619C174.82 19.8525 174.975 20.3652 174.975 21C174.975 21.8789 174.755 22.6357 174.316 23.2705C173.876 23.9215 173.217 24.4098 172.338 24.7354L171.997 24.3203C173.299 23.7181 173.95 22.8717 173.95 21.7812C173.95 21.5859 173.909 21.472 173.828 21.4395C173.746 21.4069 173.657 21.4069 173.559 21.4395L173.266 21.5615ZM195.776 13.6514C195.971 13.6188 196.15 13.5944 196.313 13.5781C196.492 13.5618 196.671 13.5456 196.85 13.5293L196.411 15.3115C195.239 15.2301 193.937 15.1895 192.504 15.1895C191.072 15.1895 189.697 15.222 188.378 15.2871C188.346 15.4173 188.313 15.5638 188.281 15.7266C188.264 15.873 188.232 16.0277 188.183 16.1904L186.669 16.459C186.588 16.1335 186.515 15.7347 186.45 15.2627C186.401 14.7744 186.36 14.3187 186.328 13.8955L185.888 7.54785C185.872 7.25488 185.839 7.01888 185.791 6.83984C185.742 6.66081 185.652 6.51432 185.522 6.40039C185.392 6.28646 185.213 6.1888 184.985 6.10742C184.773 6.00977 184.488 5.91211 184.13 5.81445L184.545 4.95996C185.603 5.09017 186.629 5.17969 187.622 5.22852C188.631 5.26107 189.632 5.27734 190.625 5.27734C191.617 5.26107 192.618 5.22038 193.627 5.15527C194.653 5.09017 195.719 5.00879 196.826 4.91113C196.761 5.33431 196.679 5.92025 196.582 6.66895C196.484 7.41764 196.386 8.21517 196.289 9.06152C196.191 9.90788 196.093 10.7461 195.996 11.5762C195.898 12.39 195.825 13.0817 195.776 13.6514ZM194.116 6.47363C193.09 6.4248 192.073 6.41667 191.064 6.44922C190.055 6.48177 189.103 6.5306 188.208 6.5957L188.452 13.4561V14.0176C189.314 14.0013 190.201 13.9769 191.113 13.9443C192.041 13.8955 192.936 13.8467 193.798 13.7979L194.116 6.47363ZM202.246 16.8008C202.246 17.3053 202.237 17.8913 202.221 18.5586C202.205 19.2096 202.181 19.8688 202.148 20.5361C202.115 21.1872 202.075 21.8057 202.026 22.3916C201.977 22.9938 201.92 23.474 201.855 23.832L200.17 24.0518C200.138 23.7913 200.105 23.4414 200.073 23.002C200.056 22.5625 200.032 22.0905 200 21.5859C199.983 21.0977 199.967 20.5931 199.951 20.0723C199.951 19.5352 199.951 19.0306 199.951 18.5586V3.22656C199.951 2.72201 199.715 2.3151 199.243 2.00586C198.787 1.68034 198.022 1.38737 196.948 1.12695L197.314 0.223633C197.721 0.272461 198.16 0.337565 198.632 0.418945C199.121 0.484049 199.601 0.56543 200.073 0.663086C200.545 0.744466 200.992 0.825846 201.416 0.907227C201.839 0.988607 202.205 1.05371 202.514 1.10254C202.482 1.24902 202.449 1.42806 202.417 1.63965C202.384 1.85124 202.351 2.07096 202.319 2.29883C202.303 2.51042 202.286 2.70573 202.27 2.88477C202.254 3.0638 202.246 3.19401 202.246 3.27539V9.79395C202.945 9.74512 203.751 9.67188 204.663 9.57422C205.574 9.47656 206.412 9.36263 207.177 9.23242L206.909 11.21C206.616 11.1937 206.274 11.1855 205.883 11.1855C205.493 11.1855 205.086 11.1855 204.663 11.1855C204.239 11.1855 203.816 11.1855 203.393 11.1855C202.97 11.1855 202.587 11.1855 202.246 11.1855V16.8008ZM216.381 5.49707C217.081 5.59473 217.732 5.79004 218.334 6.08301C218.937 6.37598 219.449 6.74219 219.873 7.18164C220.296 7.60482 220.629 8.0931 220.874 8.64648C221.118 9.19987 221.24 9.79395 221.24 10.4287C221.24 11.1449 221.085 11.8122 220.776 12.4307C220.483 13.0329 220.068 13.5618 219.531 14.0176C219.01 14.457 218.391 14.807 217.675 15.0674C216.959 15.3115 216.178 15.4336 215.332 15.4336C214.469 15.4336 213.671 15.3115 212.939 15.0674C212.223 14.807 211.596 14.457 211.059 14.0176C210.538 13.5618 210.131 13.0329 209.838 12.4307C209.545 11.8122 209.399 11.1449 209.399 10.4287C209.399 9.77767 209.529 9.15918 209.79 8.57324C210.05 7.9873 210.408 7.47461 210.864 7.03516C211.336 6.5957 211.889 6.23763 212.524 5.96094C213.159 5.68424 213.859 5.52148 214.624 5.47266C214.624 5.22852 214.55 5.0332 214.404 4.88672C214.274 4.74023 214.005 4.60189 213.598 4.47168L213.94 3.73926C214.135 3.78809 214.355 3.83691 214.599 3.88574C214.843 3.93457 215.087 3.9834 215.332 4.03223C215.592 4.08105 215.844 4.12988 216.088 4.17871C216.333 4.22754 216.552 4.27637 216.748 4.3252C216.682 4.47168 216.617 4.65072 216.552 4.8623C216.487 5.05762 216.43 5.26921 216.381 5.49707ZM218.872 10.3555C218.872 9.83464 218.782 9.35449 218.603 8.91504C218.424 8.45931 218.172 8.06868 217.846 7.74316C217.537 7.40137 217.171 7.13281 216.748 6.9375C216.324 6.74219 215.869 6.64453 215.38 6.64453C214.892 6.64453 214.428 6.74219 213.989 6.9375C213.566 7.13281 213.191 7.40137 212.866 7.74316C212.54 8.06868 212.28 8.45931 212.084 8.91504C211.905 9.35449 211.816 9.83464 211.816 10.3555C211.816 10.8763 211.905 11.3646 212.084 11.8203C212.28 12.2598 212.54 12.6423 212.866 12.9678C213.191 13.277 213.566 13.5212 213.989 13.7002C214.428 13.8792 214.892 13.9688 215.38 13.9688C215.869 13.9688 216.324 13.8792 216.748 13.7002C217.187 13.5212 217.561 13.277 217.871 12.9678C218.18 12.6423 218.424 12.2598 218.603 11.8203C218.782 11.3646 218.872 10.8763 218.872 10.3555ZM222.753 0.223633C223.144 0.272461 223.575 0.337565 224.047 0.418945C224.519 0.484049 224.991 0.56543 225.463 0.663086C225.935 0.744466 226.383 0.825846 226.806 0.907227C227.246 0.988607 227.628 1.05371 227.954 1.10254C227.921 1.24902 227.889 1.42806 227.856 1.63965C227.823 1.85124 227.791 2.07096 227.758 2.29883C227.742 2.51042 227.726 2.70573 227.709 2.88477C227.693 3.0638 227.685 3.19401 227.685 3.27539V16.8008C227.685 17.3053 227.669 17.8913 227.636 18.5586C227.62 19.2096 227.587 19.8688 227.539 20.5361C227.506 21.1872 227.457 21.8057 227.392 22.3916C227.343 22.9938 227.286 23.474 227.221 23.832L225.61 24.0518C225.577 23.7913 225.545 23.4414 225.512 23.002C225.48 22.5625 225.447 22.0905 225.415 21.5859C225.398 21.0977 225.382 20.5931 225.366 20.0723C225.366 19.5352 225.366 19.0306 225.366 18.5586V3.22656C225.366 2.72201 225.122 2.3151 224.633 2.00586C224.161 1.68034 223.388 1.38737 222.314 1.12695L222.753 0.223633ZM244.799 18.8516C245.45 18.819 246.044 18.7946 246.582 18.7783C247.119 18.762 247.558 18.7458 247.9 18.7295C248.99 18.6807 250.097 18.5993 251.22 18.4854C252.36 18.3714 253.369 18.2575 254.248 18.1436L253.955 20.1455C253.304 20.113 252.457 20.0885 251.416 20.0723C250.374 20.056 249.308 20.0397 248.217 20.0234C247.762 20.0234 247.208 20.0316 246.557 20.0479C245.906 20.0479 245.198 20.0641 244.433 20.0967C243.684 20.113 242.911 20.1374 242.114 20.1699C241.333 20.1862 240.584 20.2106 239.868 20.2432C239.152 20.2594 238.5 20.2839 237.915 20.3164C237.345 20.349 236.897 20.3734 236.572 20.3896C235.953 20.4222 235.294 20.471 234.594 20.5361C233.894 20.6012 233.243 20.6663 232.641 20.7314L231.86 18.6074C232.592 18.6888 233.365 18.762 234.179 18.8271C235.009 18.876 235.799 18.9167 236.547 18.9492C236.857 18.9655 237.231 18.9736 237.67 18.9736C238.11 18.9736 238.59 18.9736 239.111 18.9736C239.648 18.9736 240.201 18.9736 240.771 18.9736C241.341 18.9574 241.918 18.9411 242.504 18.9248V14.8477C241.577 14.8639 240.706 14.8802 239.892 14.8965C239.078 14.9128 238.37 14.9372 237.768 14.9697C237.215 15.0023 236.824 14.8883 236.596 14.6279C236.368 14.3512 236.254 14.0094 236.254 13.6025V10.6973C236.254 10.4043 236.23 10.1683 236.181 9.98926C236.149 9.79395 236.067 9.63118 235.937 9.50098C235.823 9.35449 235.652 9.23242 235.424 9.13477C235.196 9.03711 234.887 8.92318 234.497 8.79297L234.912 8.06055C235.725 8.14193 236.645 8.19889 237.67 8.23145C238.712 8.264 239.778 8.28027 240.869 8.28027C241.959 8.28027 243.042 8.27214 244.116 8.25586C245.206 8.22331 246.207 8.18262 247.119 8.13379L247.314 4.20312C246.923 4.18685 246.37 4.17871 245.654 4.17871C244.938 4.17871 244.189 4.19499 243.408 4.22754C242.626 4.24382 241.87 4.26823 241.137 4.30078C240.421 4.31706 239.86 4.34147 239.453 4.37402C239.274 4.3903 239.038 4.40658 238.745 4.42285C238.468 4.43913 238.159 4.46354 237.817 4.49609C237.491 4.52865 237.15 4.56934 236.792 4.61816C236.45 4.66699 236.124 4.71582 235.815 4.76465L234.741 2.83594C234.903 2.86849 235.139 2.90918 235.449 2.95801C235.758 3.00684 236.083 3.04753 236.425 3.08008C236.783 3.11263 237.133 3.14518 237.475 3.17773C237.833 3.19401 238.134 3.20215 238.378 3.20215C238.997 3.20215 239.811 3.20215 240.82 3.20215C241.829 3.20215 242.895 3.19401 244.018 3.17773C245.141 3.14518 246.24 3.10449 247.314 3.05566C248.404 3.00684 249.34 2.94987 250.122 2.88477C250.073 3.03125 250 3.29167 249.902 3.66602C249.82 4.04036 249.764 4.37402 249.731 4.66699L249.243 7.96289C249.584 7.94661 249.886 7.9222 250.146 7.88965L249.975 9.45215C249.064 9.40332 248.038 9.37891 246.899 9.37891C245.76 9.37891 244.645 9.38704 243.554 9.40332C242.464 9.4196 241.471 9.44401 240.576 9.47656C239.681 9.49284 239.029 9.50911 238.623 9.52539C238.623 9.6556 238.614 9.79395 238.598 9.94043C238.582 10.0706 238.574 10.2008 238.574 10.3311V13.0654C238.574 13.3096 238.606 13.4642 238.671 13.5293C238.753 13.5781 238.948 13.6107 239.257 13.627C239.648 13.6432 240.144 13.6514 240.747 13.6514C241.349 13.6351 242 13.6107 242.7 13.5781C243.416 13.5456 244.156 13.513 244.921 13.4805C245.686 13.4316 246.435 13.3828 247.167 13.334C247.9 13.2689 248.583 13.2038 249.218 13.1387C249.869 13.0736 250.423 13.0003 250.878 12.9189L250.463 14.8721C249.682 14.8395 248.803 14.8232 247.827 14.8232C246.85 14.807 245.841 14.807 244.799 14.8232V18.8516ZM269.897 18.2656C270.141 17.2891 270.377 16.2067 270.605 15.0186C270.833 13.8141 271.036 12.6097 271.215 11.4053C271.411 10.1846 271.565 9.0127 271.679 7.88965C271.809 6.7666 271.891 5.7819 271.923 4.93555C271.321 4.93555 270.646 4.94368 269.897 4.95996C269.148 4.95996 268.4 4.97624 267.651 5.00879C266.902 5.02507 266.178 5.04948 265.478 5.08203C264.794 5.09831 264.208 5.12272 263.72 5.15527C263.476 5.17155 263.175 5.19596 262.817 5.22852C262.475 5.24479 262.109 5.26921 261.718 5.30176C261.328 5.33431 260.929 5.38314 260.522 5.44824C260.131 5.49707 259.773 5.55404 259.448 5.61914L258.398 3.59277C258.707 3.62533 259.049 3.66602 259.423 3.71484C259.798 3.7474 260.164 3.77995 260.522 3.8125C260.896 3.84505 261.254 3.86947 261.596 3.88574C261.938 3.90202 262.239 3.91016 262.5 3.91016C263.378 3.91016 264.339 3.90202 265.38 3.88574C266.438 3.85319 267.496 3.8125 268.554 3.76367C269.612 3.71484 270.629 3.64974 271.606 3.56836C272.599 3.48698 273.461 3.38932 274.194 3.27539L274.829 3.91016C274.682 4.98438 274.487 6.15625 274.243 7.42578C274.015 8.69531 273.754 9.97298 273.461 11.2588C273.185 12.5446 272.884 13.7897 272.558 14.9941C272.249 16.1986 271.931 17.2646 271.606 18.1924H271.655C272.745 18.1436 273.852 18.0703 274.975 17.9727C276.114 17.8587 277.124 17.7367 278.002 17.6064L277.709 19.6084C277.058 19.5758 276.212 19.5514 275.17 19.5352C274.129 19.5189 273.063 19.5026 271.972 19.4863C271.516 19.4863 270.963 19.4945 270.312 19.5107C269.661 19.5107 268.953 19.527 268.188 19.5596C267.439 19.5758 266.666 19.6003 265.869 19.6328C265.087 19.6491 264.339 19.6735 263.623 19.7061C262.906 19.7223 262.255 19.7467 261.669 19.7793C261.1 19.8118 260.652 19.8363 260.327 19.8525C259.708 19.8851 259.049 19.9339 258.349 19.999C257.649 20.0479 256.998 20.113 256.396 20.1943L255.615 18.0703C256.347 18.1517 257.12 18.2249 257.934 18.29C258.764 18.3389 259.554 18.3796 260.302 18.4121C260.791 18.4284 261.425 18.4365 262.207 18.4365C263.004 18.4202 263.85 18.404 264.746 18.3877C265.641 18.3714 266.536 18.3551 267.431 18.3389C268.343 18.3063 269.165 18.2819 269.897 18.2656Z" fill="white"/>
</svg>
