<svg width="26" height="29" viewBox="0 0 26 29" fill="none" xmlns="http://www.w3.org/2000/svg">
<path d="M3.90332 28.4424C1.33496 28.4424 0.0507812 27.5635 0.0507812 25.8057C0.0507812 24.7705 0.358398 23.7061 0.973633 22.6123C1.58887 21.5186 2.46289 20.5029 3.5957 19.5654C4.73828 18.6182 6.10059 17.8564 7.68262 17.2803C9.27441 16.6943 11.042 16.4014 12.9854 16.4014C14.9385 16.4014 16.7061 16.6943 18.2881 17.2803C19.8799 17.8564 21.2422 18.6182 22.375 19.5654C23.5176 20.5029 24.3965 21.5186 25.0117 22.6123C25.627 23.7061 25.9346 24.7705 25.9346 25.8057C25.9346 27.5635 24.6504 28.4424 22.082 28.4424H3.90332ZM3.58105 25.6738H22.4043C22.5605 25.6738 22.668 25.6445 22.7266 25.5859C22.7949 25.5273 22.8291 25.4346 22.8291 25.3076C22.8291 24.7803 22.6094 24.1699 22.1699 23.4766C21.7402 22.7734 21.1055 22.0996 20.2656 21.4551C19.4258 20.8008 18.3955 20.2588 17.1748 19.8291C15.9541 19.3994 14.5576 19.1846 12.9854 19.1846C11.4229 19.1846 10.0264 19.3994 8.7959 19.8291C7.5752 20.2588 6.54492 20.8008 5.70508 21.4551C4.86523 22.0996 4.22559 22.7734 3.78613 23.4766C3.35645 24.1699 3.1416 24.7803 3.1416 25.3076C3.1416 25.4346 3.17578 25.5273 3.24414 25.5859C3.3125 25.6445 3.4248 25.6738 3.58105 25.6738ZM12.9854 14.7754C11.7939 14.7754 10.71 14.4629 9.7334 13.8379C8.75684 13.2031 7.97559 12.3584 7.38965 11.3037C6.81348 10.2393 6.52539 9.06738 6.52539 7.78809C6.52539 6.51855 6.81836 5.36621 7.4043 4.33105C7.99023 3.2959 8.77148 2.46582 9.74805 1.84082C10.7246 1.21582 11.8037 0.90332 12.9854 0.90332C14.1865 0.90332 15.2754 1.21094 16.252 1.82617C17.2285 2.44141 18.0049 3.2666 18.5811 4.30176C19.167 5.33691 19.46 6.48926 19.46 7.75879C19.46 9.04785 19.167 10.2246 18.5811 11.2891C18.0049 12.3438 17.2285 13.1885 16.252 13.8232C15.2754 14.458 14.1865 14.7754 12.9854 14.7754ZM12.9854 12.0068C13.6494 12.0068 14.25 11.8213 14.7871 11.4502C15.334 11.0791 15.7686 10.5713 16.0908 9.92676C16.4229 9.28223 16.5889 8.55957 16.5889 7.75879C16.5889 6.97754 16.4229 6.2793 16.0908 5.66406C15.7686 5.04883 15.334 4.56543 14.7871 4.21387C14.25 3.8623 13.6494 3.68652 12.9854 3.68652C12.3408 3.68652 11.7451 3.86719 11.1982 4.22852C10.6514 4.58008 10.2119 5.06348 9.87988 5.67871C9.55762 6.29395 9.39648 6.99219 9.39648 7.77344C9.39648 8.58398 9.5625 9.31152 9.89453 9.95605C10.2266 10.5908 10.6611 11.0938 11.1982 11.4648C11.7451 11.8262 12.3408 12.0068 12.9854 12.0068Z" fill="#878787"/>
</svg>
