<svg width="28" height="29" viewBox="0 0 28 29" fill="none" xmlns="http://www.w3.org/2000/svg">
<path d="M25.9385 2.55859C26.6904 3.31055 27.1836 4.20898 27.418 5.25391C27.6523 6.29883 27.7695 7.51953 27.7695 8.91602V19.9609C27.7695 21.3672 27.6523 22.5928 27.418 23.6377C27.1836 24.6729 26.6904 25.5664 25.9385 26.3184C25.1768 27.0801 24.2686 27.5781 23.2139 27.8125C22.1689 28.0566 20.9482 28.1787 19.5518 28.1787H8.41895C7.03223 28.1787 5.81152 28.0566 4.75684 27.8125C3.71191 27.5781 2.80859 27.0801 2.04688 26.3184C1.28516 25.5762 0.787109 24.6826 0.552734 23.6377C0.328125 22.5928 0.21582 21.3672 0.21582 19.9609V8.88672C0.21582 7.5 0.333008 6.28906 0.567383 5.25391C0.801758 4.21875 1.29492 3.32031 2.04688 2.55859C2.80859 1.79688 3.71191 1.29883 4.75684 1.06445C5.81152 0.830078 7.02734 0.712891 8.4043 0.712891H19.5518C20.9482 0.712891 22.1689 0.830078 23.2139 1.06445C24.2686 1.29883 25.1768 1.79688 25.9385 2.55859ZM24.5029 8.50586C24.5029 7.74414 24.4395 7.05566 24.3125 6.44043C24.1855 5.8252 23.9316 5.32715 23.5508 4.94629C23.1699 4.56543 22.667 4.30664 22.042 4.16992C21.417 4.0332 20.7236 3.96484 19.9619 3.96484H8.05273C7.28125 3.96484 6.57812 4.0332 5.94336 4.16992C5.30859 4.30664 4.80566 4.56543 4.43457 4.94629C4.05371 5.32715 3.79492 5.83008 3.6582 6.45508C3.53125 7.07031 3.46777 7.76367 3.46777 8.53516V20.3711C3.46777 21.1426 3.53125 21.8359 3.6582 22.4512C3.79492 23.0566 4.05371 23.5547 4.43457 23.9453C4.81543 24.3262 5.31836 24.585 5.94336 24.7217C6.56836 24.8486 7.26172 24.9121 8.02344 24.9121H19.9619C20.7236 24.9121 21.417 24.8486 22.042 24.7217C22.667 24.585 23.1699 24.3262 23.5508 23.9453C23.9219 23.5547 24.1709 23.0566 24.2979 22.4512C24.4346 21.8359 24.5029 21.1426 24.5029 20.3711V8.50586ZM7.24707 14.4238C7.24707 13.9844 7.38379 13.6279 7.65723 13.3545C7.93066 13.0713 8.28711 12.9297 8.72656 12.9297H12.5205V9.13574C12.5205 8.70605 12.6572 8.35449 12.9307 8.08105C13.2139 7.79785 13.5654 7.65625 13.9854 7.65625C14.4248 7.65625 14.7812 7.79297 15.0547 8.06641C15.3379 8.33984 15.4795 8.69629 15.4795 9.13574V12.9297H19.2881C19.7178 12.9297 20.0693 13.0713 20.3428 13.3545C20.6162 13.6279 20.7529 13.9844 20.7529 14.4238C20.7529 14.8438 20.6162 15.1953 20.3428 15.4785C20.0693 15.752 19.7178 15.8887 19.2881 15.8887H15.4795V19.6973C15.4795 20.127 15.3379 20.4785 15.0547 20.752C14.7812 21.0254 14.4248 21.1621 13.9854 21.1621C13.5654 21.1621 13.2139 21.0254 12.9307 20.752C12.6572 20.4785 12.5205 20.127 12.5205 19.6973V15.8887H8.72656C8.29688 15.8887 7.94043 15.752 7.65723 15.4785C7.38379 15.1953 7.24707 14.8438 7.24707 14.4238Z" fill="#878787"/>
</svg>
