<svg width="30" height="31" viewBox="0 0 30 31" fill="none" xmlns="http://www.w3.org/2000/svg">
<path d="M0.424805 12.8164C0.424805 11.1562 0.737305 9.59375 1.3623 8.12891C1.9873 6.66406 2.85645 5.37988 3.96973 4.27637C5.08301 3.16309 6.36719 2.29395 7.82227 1.66895C9.28711 1.04395 10.8545 0.731445 12.5244 0.731445C14.1943 0.731445 15.7568 1.04395 17.2119 1.66895C18.6768 2.29395 19.9658 3.16309 21.0791 4.27637C22.1924 5.37988 23.0615 6.66406 23.6865 8.12891C24.3115 9.59375 24.624 11.1562 24.624 12.8164C24.624 14.0664 24.4385 15.2578 24.0674 16.3906C23.7061 17.5234 23.1982 18.5635 22.5439 19.5107L28.8574 25.8535C29.0918 26.0977 29.2676 26.3662 29.3848 26.6592C29.5117 26.9619 29.5752 27.2842 29.5752 27.626C29.5752 28.0947 29.4678 28.5195 29.2529 28.9004C29.0381 29.2812 28.7451 29.5791 28.374 29.7939C28.0029 30.0186 27.5732 30.1309 27.085 30.1309C26.7529 30.1309 26.4307 30.0723 26.1182 29.9551C25.8057 29.8379 25.5273 29.6572 25.2832 29.4131L18.9111 23.041C17.9932 23.627 16.9922 24.0908 15.9082 24.4326C14.834 24.7646 13.7061 24.9307 12.5244 24.9307C10.8545 24.9307 9.28711 24.6182 7.82227 23.9932C6.36719 23.3682 5.08301 22.499 3.96973 21.3857C2.85645 20.2725 1.9873 18.9834 1.3623 17.5186C0.737305 16.0537 0.424805 14.4863 0.424805 12.8164ZM3.98438 12.8164C3.98438 13.998 4.2041 15.1064 4.64355 16.1416C5.09277 17.167 5.70801 18.0703 6.48926 18.8516C7.27051 19.6328 8.17383 20.248 9.19922 20.6973C10.2344 21.1367 11.3428 21.3564 12.5244 21.3564C13.7061 21.3564 14.8096 21.1367 15.835 20.6973C16.8701 20.248 17.7783 19.6328 18.5596 18.8516C19.3408 18.0703 19.9512 17.167 20.3906 16.1416C20.8398 15.1064 21.0645 13.998 21.0645 12.8164C21.0645 11.6445 20.8398 10.5459 20.3906 9.52051C19.9512 8.48535 19.3408 7.57715 18.5596 6.7959C17.7783 6.00488 16.8701 5.38965 15.835 4.9502C14.8096 4.51074 13.7061 4.29102 12.5244 4.29102C11.3428 4.29102 10.2344 4.51074 9.19922 4.9502C8.17383 5.38965 7.27051 6.00488 6.48926 6.7959C5.70801 7.57715 5.09277 8.48535 4.64355 9.52051C4.2041 10.5459 3.98438 11.6445 3.98438 12.8164Z" fill="#878787"/>
</svg>
