<svg width="33" height="27" viewBox="0 0 33 27" fill="none" xmlns="http://www.w3.org/2000/svg">
<path d="M0.225586 24.9336C0.225586 24.4746 0.386719 24.0889 0.708984 23.7764C1.03125 23.4639 1.41699 23.3076 1.86621 23.3076H31.1191C31.5781 23.3076 31.9688 23.4639 32.291 23.7764C32.6133 24.0889 32.7744 24.4746 32.7744 24.9336C32.7744 25.4121 32.6133 25.8027 32.291 26.1055C31.9688 26.4082 31.5781 26.5596 31.1191 26.5596H1.86621C1.41699 26.5596 1.03125 26.4082 0.708984 26.1055C0.386719 25.8027 0.225586 25.4121 0.225586 24.9336ZM1.86621 19.6162V8.07324C1.86621 7.61426 2.00293 7.24805 2.27637 6.97461C2.5498 6.70117 2.9209 6.56445 3.38965 6.56445H6.43652C6.88574 6.56445 7.24707 6.70117 7.52051 6.97461C7.80371 7.24805 7.94531 7.61426 7.94531 8.07324V19.6162C7.94531 20.0752 7.80371 20.4365 7.52051 20.7002C7.24707 20.9639 6.88574 21.0957 6.43652 21.0957H3.38965C2.9209 21.0957 2.5498 20.9639 2.27637 20.7002C2.00293 20.4365 1.86621 20.0752 1.86621 19.6162ZM9.58594 19.6162V1.74512C9.58594 1.28613 9.72266 0.924805 9.99609 0.661133C10.2793 0.387695 10.6504 0.250977 11.1094 0.250977H14.1416C14.6104 0.250977 14.9814 0.387695 15.2549 0.661133C15.5283 0.924805 15.665 1.28613 15.665 1.74512V19.6162C15.665 20.0752 15.5283 20.4365 15.2549 20.7002C14.9814 20.9639 14.6104 21.0957 14.1416 21.0957H11.1094C10.6504 21.0957 10.2793 20.9639 9.99609 20.7002C9.72266 20.4365 9.58594 20.0752 9.58594 19.6162ZM17.3203 19.6162V5.11426C17.3203 4.65527 17.4521 4.29395 17.7158 4.03027C17.9893 3.75684 18.3604 3.62012 18.8291 3.62012H21.876C22.335 3.62012 22.7012 3.75684 22.9746 4.03027C23.248 4.29395 23.3848 4.65527 23.3848 5.11426V19.6162C23.3848 20.0752 23.248 20.4365 22.9746 20.7002C22.7012 20.9639 22.335 21.0957 21.876 21.0957H18.8291C18.3604 21.0957 17.9893 20.9639 17.7158 20.7002C17.4521 20.4365 17.3203 20.0752 17.3203 19.6162ZM25.04 19.6162V10.959C25.04 10.5 25.1768 10.1338 25.4502 9.86035C25.7236 9.58691 26.0898 9.4502 26.5488 9.4502H29.5957C30.0547 9.4502 30.4209 9.58691 30.6943 9.86035C30.9775 10.1338 31.1191 10.5 31.1191 10.959V19.6162C31.1191 20.0752 30.9775 20.4365 30.6943 20.7002C30.4209 20.9639 30.0547 21.0957 29.5957 21.0957H26.5488C26.0898 21.0957 25.7236 20.9639 25.4502 20.7002C25.1768 20.4365 25.04 20.0752 25.04 19.6162Z" fill="#878787"/>
</svg>
